<svg xmlns="http://www.w3.org/2000/svg" xmlns:xlink="http://www.w3.org/1999/xlink" width="43" height="20" viewBox="0 0 43 20">
  <defs>
    <linearGradient id="linear-gradient" x1="0.5" x2="0.5" y2="1" gradientUnits="objectBoundingBox">
      <stop offset="0" stop-color="#7127ee"/>
      <stop offset="0.167" stop-color="#7127ee"/>
      <stop offset="0.167" stop-color="#138fe9"/>
      <stop offset="0.331" stop-color="#138fe9"/>
      <stop offset="0.335" stop-color="#01eb3e"/>
      <stop offset="0.5" stop-color="#01eb3e"/>
      <stop offset="0.5" stop-color="#deeb44"/>
      <stop offset="0.664" stop-color="#deeb44"/>
      <stop offset="0.669" stop-color="#dc8d30"/>
      <stop offset="0.833" stop-color="#dc8d30"/>
      <stop offset="0.833" stop-color="#e12523"/>
      <stop offset="1" stop-color="#e12523"/>
      <stop offset="1" stop-color="gray"/>
    </linearGradient>
    <clipPath id="clip-NyanPig">
      <rect width="43" height="20"/>
    </clipPath>
  </defs>
  <g id="NyanPig" clip-path="url(#clip-NyanPig)">
    <g id="Rainbow">
      <g id="_06" data-name="06" transform="translate(5 9)">
        <rect id="_06-2" data-name="06" width="4" height="6" transform="translate(4 6) rotate(180)" fill="url(#linear-gradient)"/>
      </g>
      <g id="_06-3" data-name="06" transform="translate(9 8)">
        <rect id="_06-4" data-name="06" width="4" height="6" transform="translate(4 6) rotate(180)" fill="url(#linear-gradient)"/>
      </g>
      <g id="_06-5" data-name="06" transform="translate(13 9)">
        <rect id="_06-6" data-name="06" width="4" height="6" transform="translate(4 6) rotate(180)" fill="url(#linear-gradient)"/>
      </g>
      <g id="_06-7" data-name="06" transform="translate(17 8)">
        <rect id="_06-8" data-name="06" width="4" height="6" transform="translate(4 6) rotate(180)" fill="url(#linear-gradient)"/>
      </g>
      <g id="_06-9" data-name="06" transform="translate(21 9)">
        <rect id="_06-10" data-name="06" width="4" height="6" transform="translate(4 6) rotate(180)" fill="url(#linear-gradient)"/>
      </g>
      <g id="_06-11" data-name="06" transform="translate(25 8)">
        <rect id="_06-12" data-name="06" width="4" height="6" transform="translate(4 6) rotate(180)" fill="url(#linear-gradient)"/>
      </g>
    </g>
    <g id="Pig" transform="translate(-28)">
      <g id="Foot" transform="translate(52)">
        <rect id="Rectangle_3" data-name="Rectangle 3" width="1" height="3" transform="translate(6 13)" fill="#f19183"/>
        <rect id="Rectangle_4" data-name="Rectangle 4" width="1" height="3" transform="translate(8 13)" fill="#f19183"/>
        <rect id="Rectangle_5" data-name="Rectangle 5" width="1" height="3" transform="translate(14 13)" fill="#f19183"/>
        <rect id="Rectangle_6" data-name="Rectangle 6" width="1" height="3" transform="translate(12 13)" fill="#f19183"/>
      </g>
      <g id="Tail" transform="translate(52)">
        <rect id="Rectangle_19" data-name="Rectangle 19" width="1" height="1" transform="translate(4 10)" fill="#f19183"/>
        <rect id="Rectangle_20" data-name="Rectangle 20" width="1" height="1" transform="translate(3 11)" fill="#f19183"/>
      </g>
      <g id="Body" transform="translate(52)">
        <rect id="Rectangle_9" data-name="Rectangle 9" width="8" height="8" transform="translate(7 6)" fill="#f19183"/>
        <rect id="Rectangle_1" data-name="Rectangle 1" width="10" height="8" transform="translate(6 7)" fill="#f19183"/>
        <rect id="Rectangle_2" data-name="Rectangle 2" width="12" height="6" transform="translate(5 8)" fill="#f19183"/>
        <rect id="Rectangle_7" data-name="Rectangle 7" width="10" height="6" transform="translate(6 8)" fill="#fcd8d7"/>
        <rect id="Rectangle_10" data-name="Rectangle 10" width="8" height="6" transform="translate(7 7)" fill="#fcd8d7"/>
        <rect id="Rectangle_23" data-name="Rectangle 23" width="4" height="1" transform="translate(7 13)" fill="#fac4b8"/>
        <rect id="Rectangle_24" data-name="Rectangle 24" width="2" height="1" transform="translate(8 12)" fill="#fac4b8"/>
        <rect id="Rectangle_14" data-name="Rectangle 14" width="1" height="3" transform="translate(10 5)" fill="#f19183"/>
        <rect id="Rectangle_11" data-name="Rectangle 11" width="1" height="3" transform="translate(15 5)" fill="#f19183"/>
        <rect id="Rectangle_25" data-name="Rectangle 25" width="2" height="1" transform="translate(6 9)" fill="#fac4b8"/>
        <rect id="Rectangle_26" data-name="Rectangle 26" width="3" height="1" transform="translate(6 8)" fill="#fac4b8"/>
        <rect id="Rectangle_27" data-name="Rectangle 27" width="3" height="1" transform="translate(7 7)" fill="#fac4b8"/>
        <rect id="Rectangle_28" data-name="Rectangle 28" width="1" height="1" transform="translate(14 7)" fill="#fac4b8"/>
      </g>
      <g id="Nose" transform="translate(52)">
        <rect id="Rectangle_8" data-name="Rectangle 8" width="5" height="3" transform="translate(13 10)" fill="#f79197"/>
        <rect id="Rectangle_15" data-name="Rectangle 15" width="1" height="3" transform="translate(17 11) rotate(90)" fill="#e73b36"/>
        <rect id="Rectangle_16" data-name="Rectangle 16" width="1" height="1" transform="translate(16 11) rotate(90)" fill="#f66b79"/>
      </g>
      <g id="Eyes" transform="translate(52)">
        <rect id="Rectangle_21" data-name="Rectangle 21" width="1" height="1" transform="translate(12 9)" fill="#0c0b0b"/>
        <rect id="Rectangle_22" data-name="Rectangle 22" width="1" height="1" transform="translate(15 9)" fill="#0c0b0b"/>
      </g>
    </g>
    <g id="Heart" transform="translate(4 4)">
      <rect id="Rectangle_29" data-name="Rectangle 29" width="1" height="1" transform="translate(32 3)" fill="#1c1c1c"/>
      <rect id="Rectangle_30" data-name="Rectangle 30" width="1" height="1" transform="translate(31 2)" fill="#1c1c1c"/>
      <rect id="Rectangle_31" data-name="Rectangle 31" width="1" height="1" transform="translate(33 2)" fill="#1c1c1c"/>
      <rect id="Rectangle_32" data-name="Rectangle 32" width="1" height="1" transform="translate(34 1)" fill="#1c1c1c"/>
      <rect id="Rectangle_34" data-name="Rectangle 34" width="1" height="1" transform="translate(34)" fill="#1c1c1c"/>
      <rect id="Rectangle_35" data-name="Rectangle 35" width="1" height="1" transform="translate(30)" fill="#1c1c1c"/>
      <rect id="Rectangle_33" data-name="Rectangle 33" width="1" height="1" transform="translate(30 1)" fill="#1c1c1c"/>
      <rect id="Rectangle_38" data-name="Rectangle 38" width="1" height="1" transform="translate(32)" fill="#1c1c1c"/>
      <rect id="Rectangle_36" data-name="Rectangle 36" width="1" height="1" transform="translate(33 -1)" fill="#1c1c1c"/>
      <rect id="Rectangle_37" data-name="Rectangle 37" width="1" height="1" transform="translate(31 -1)" fill="#1c1c1c"/>
      <rect id="Rectangle_39" data-name="Rectangle 39" width="1" height="1" transform="translate(31)" fill="#cf2626"/>
      <rect id="Rectangle_40" data-name="Rectangle 40" width="1" height="1" transform="translate(31 1)" fill="#cf2626"/>
      <rect id="Rectangle_41" data-name="Rectangle 41" width="1" height="1" transform="translate(32 1)" fill="#cf2626"/>
      <rect id="Rectangle_42" data-name="Rectangle 42" width="1" height="1" transform="translate(33 1)" fill="#cf2626"/>
      <rect id="Rectangle_43" data-name="Rectangle 43" width="1" height="1" transform="translate(33)" fill="#cf2626"/>
      <rect id="Rectangle_44" data-name="Rectangle 44" width="1" height="1" transform="translate(32 2)" fill="#cf2626"/>
    </g>
  </g>
</svg>
