<svg xmlns="http://www.w3.org/2000/svg" xmlns:xlink="http://www.w3.org/1999/xlink" width="870" height="870" viewBox="0 0 870 870">
  <defs>
    <clipPath id="clip-stars_background">
      <rect width="870" height="870"/>
    </clipPath>
  </defs>
  <g id="stars_background" clip-path="url(#clip-stars_background)">
    <rect width="3" height="3" transform="translate(221 308)" fill="#fff"/>
    <rect width="3" height="3" transform="translate(191 208)" fill="#fff"/>
    <rect width="5" height="5" transform="translate(361 358)" fill="#fff"/>
    <rect width="3" height="3" transform="translate(401 268)" fill="#fff"/>
    <rect width="3" height="3" transform="translate(181 488)" fill="#fff"/>
    <rect width="2" height="2" transform="translate(271 368)" fill="#fff"/>
    <rect width="3" height="3" transform="translate(351 468)" fill="#fff"/>
    <rect width="3" height="3" transform="translate(451 458)" fill="#fff"/>
    <rect width="3" height="3" transform="translate(21 598)" fill="#fff"/>
    <rect width="3" height="3" transform="translate(441 38)" fill="#fff"/>
    <rect width="3" height="3" transform="translate(561 198)" fill="#fff"/>
    <rect width="3" height="3" transform="translate(601 108)" fill="#fff"/>
    <rect width="3" height="3" transform="translate(751 128)" fill="#fff"/>
    <rect width="3" height="3" transform="translate(471 208)" fill="#fff"/>
    <rect width="3" height="3" transform="translate(601 358)" fill="#fff"/>
    <rect width="3" height="3" transform="translate(701 338)" fill="#fff"/>
    <rect width="3" height="3" transform="translate(721 238)" fill="#fff"/>
    <rect width="3" height="3" transform="translate(152 269)" fill="#fff"/>
    <rect width="3" height="3" transform="translate(731 58)" fill="#fff"/>
    <rect width="8" height="8" transform="translate(411 188)" fill="#fff"/>
    <rect width="3" height="3" transform="translate(141 398)" fill="#fff"/>
    <rect width="3" height="3" transform="translate(191 318)" fill="#fff"/>
    <rect width="5" height="5" transform="translate(271 418)" fill="#fff"/>
    <rect width="3" height="3" transform="translate(301 98)" fill="#fff"/>
    <rect width="3" height="3" transform="translate(481 148)" fill="#fff"/>
    <rect width="3" height="3" transform="translate(521 58)" fill="#fff"/>
    <rect width="3" height="3" transform="translate(671 78)" fill="#fff"/>
    <rect width="3" height="3" transform="translate(341 238)" fill="#fff"/>
    <rect width="3" height="3" transform="translate(641 188)" fill="#fff"/>
    <rect width="5" height="5" transform="translate(114 365)" fill="#fff"/>
    <rect width="3" height="3" transform="translate(75 326)" fill="#fff"/>
    <rect width="3" height="3" transform="translate(275 446)" fill="#fff"/>
    <rect width="3" height="3" transform="translate(95 576)" fill="#fff"/>
    <rect width="3" height="3" transform="translate(145 496)" fill="#fff"/>
    <rect width="3" height="3" transform="translate(265 556)" fill="#fff"/>
    <rect width="3" height="3" transform="translate(365 546)" fill="#fff"/>
    <rect width="5" height="5" transform="translate(435 486)" fill="#fff"/>
    <rect width="3" height="3" transform="translate(295 236)" fill="#fff"/>
    <rect width="3" height="3" transform="translate(355 126)" fill="#fff"/>
    <rect width="3" height="3" transform="translate(475 286)" fill="#fff"/>
    <rect width="3" height="3" transform="translate(515 196)" fill="#fff"/>
    <rect width="5" height="5" transform="translate(665 216)" fill="#fff"/>
    <rect width="3" height="3" transform="translate(335 376)" fill="#fff"/>
    <rect width="3" height="3" transform="translate(315 176)" fill="#fff"/>
    <rect width="3" height="3" transform="translate(625 26)" fill="#fff"/>
    <rect width="3" height="3" transform="translate(635 326)" fill="#fff"/>
    <rect width="3" height="3" transform="translate(25 376)" fill="#fff"/>
    <rect width="5" height="5" transform="translate(15 246)" fill="#fff"/>
    <rect width="3" height="3" transform="translate(195 396)" fill="#fff"/>
    <rect width="3" height="3" transform="translate(25 516)" fill="#fff"/>
    <rect width="3" height="3" transform="translate(105 406)" fill="#fff"/>
    <rect width="3" height="3" transform="translate(175 546)" fill="#fff"/>
    <rect width="3" height="3" transform="translate(395 236)" fill="#fff"/>
    <rect width="3" height="3" transform="translate(435 146)" fill="#fff"/>
    <rect width="3" height="3" transform="translate(585 166)" fill="#fff"/>
    <rect width="3" height="3" transform="translate(255 326)" fill="#fff"/>
    <rect width="5" height="5" transform="translate(311 254)" fill="#fff"/>
    <rect width="3" height="3" transform="translate(325 26)" fill="#fff"/>
    <rect width="3" height="3" transform="translate(555 276)" fill="#fff"/>
    <rect width="3" height="3" transform="translate(275 46)" fill="#fff"/>
    <rect width="3" height="3" transform="translate(358 302)" fill="#fff"/>
    <rect width="8" height="8" transform="translate(478 372)" fill="#fff"/>
    <rect width="3" height="3" transform="translate(318 612)" fill="#fff"/>
    <rect width="3" height="3" transform="translate(388 382)" fill="#fff"/>
    <rect width="3" height="3" transform="translate(468 552)" fill="#fff"/>
    <rect width="3" height="3" transform="translate(568 472)" fill="#fff"/>
    <rect width="3" height="3" transform="translate(638 412)" fill="#fff"/>
    <rect width="3" height="3" transform="translate(558 52)" fill="#fff"/>
    <rect width="3" height="3" transform="translate(678 212)" fill="#fff"/>
    <rect width="3" height="3" transform="translate(718 122)" fill="#fff"/>
    <rect width="3" height="3" transform="translate(588 222)" fill="#fff"/>
    <rect width="3" height="3" transform="translate(668 322)" fill="#fff"/>
    <rect width="3" height="3" transform="translate(818 352)" fill="#fff"/>
    <rect width="3" height="3" transform="translate(258 272)" fill="#fff"/>
    <rect width="3" height="3" transform="translate(398 322)" fill="#fff"/>
    <rect width="3" height="3" transform="translate(218 512)" fill="#fff"/>
    <rect width="3" height="3" transform="translate(308 332)" fill="#fff"/>
    <rect width="3" height="3" transform="translate(488 422)" fill="#fff"/>
    <rect width="3" height="3" transform="translate(418 112)" fill="#fff"/>
    <rect width="3" height="3" transform="translate(638 72)" fill="#fff"/>
    <rect width="3" height="3" transform="translate(798 162)" fill="#fff"/>
    <rect width="3" height="3" transform="translate(458 252)" fill="#fff"/>
    <rect width="3" height="3" transform="translate(588 272)" fill="#fff"/>
    <rect width="3" height="3" transform="translate(738 302)" fill="#fff"/>
    <rect width="3" height="3" transform="translate(758 202)" fill="#fff"/>
    <rect width="3" height="3" transform="translate(222 310)" fill="#fff"/>
    <rect width="3" height="3" transform="translate(392 460)" fill="#fff"/>
    <rect width="2" height="2" transform="translate(432 370)" fill="#fff"/>
    <rect width="3" height="3" transform="translate(522 390)" fill="#fff"/>
    <rect width="3" height="3" transform="translate(212 590)" fill="#fff"/>
    <rect width="3" height="3" transform="translate(302 470)" fill="#fff"/>
    <rect width="3" height="3" transform="translate(392 580)" fill="#fff"/>
    <rect width="3" height="3" transform="translate(482 560)" fill="#fff"/>
    <rect width="3" height="3" transform="translate(552 500)" fill="#fff"/>
    <rect width="3" height="3" transform="translate(452 70)" fill="#fff"/>
    <rect width="3" height="3" transform="translate(512 110)" fill="#fff"/>
    <rect width="3" height="3" transform="translate(632 210)" fill="#fff"/>
    <rect width="3" height="3" transform="translate(782 230)" fill="#fff"/>
    <rect width="3" height="3" transform="translate(602 4)" fill="#fff"/>
    <rect width="3" height="3" transform="translate(502 310)" fill="#fff"/>
    <rect width="5" height="5" transform="translate(732 440)" fill="#fff"/>
    <rect width="3" height="3" transform="translate(752 340)" fill="#fff"/>
    <rect width="3" height="3" transform="translate(172 360)" fill="#fff"/>
    <rect width="3" height="3" transform="translate(92 230)" fill="#fff"/>
    <rect width="3" height="3" transform="translate(312 410)" fill="#fff"/>
    <rect width="3" height="3" transform="translate(102 540)" fill="#fff"/>
    <rect width="3" height="3" transform="translate(402 510)" fill="#fff"/>
    <rect width="3" height="3" transform="translate(472 450)" fill="#fff"/>
    <rect width="3" height="3" transform="translate(332 200)" fill="#fff"/>
    <rect width="3" height="3" transform="translate(552 160)" fill="#fff"/>
    <rect width="8" height="8" transform="translate(702 180)" fill="#fff"/>
    <rect width="3" height="3" transform="translate(312 20)" fill="#fff"/>
    <rect width="3" height="3" transform="translate(462 80)" fill="#fff"/>
    <rect width="3" height="3" transform="translate(502 360)" fill="#fff"/>
    <rect width="3" height="3" transform="translate(652 390)" fill="#fff"/>
    <rect width="3" height="3" transform="translate(672 290)" fill="#fff"/>
    <rect width="3" height="3" transform="translate(392 30)" fill="#fff"/>
    <rect width="3" height="3" transform="translate(479 15)" fill="#fff"/>
    <rect width="3" height="3" transform="translate(838 252)" fill="#fff"/>
    <rect width="3" height="3" transform="translate(771 48)" fill="#fff"/>
    <rect width="3" height="3" transform="translate(171 28)" fill="#fff"/>
    <rect width="5" height="5" transform="translate(761 88)" fill="#fff"/>
    <rect width="3" height="3" transform="translate(171 128)" fill="#fff"/>
    <rect width="3" height="3" transform="translate(65 116)" fill="#fff"/>
    <rect width="3" height="3" transform="translate(845 96)" fill="#fff"/>
    <rect width="3" height="3" transform="translate(225 12)" fill="#fff"/>
    <rect width="3" height="3" transform="translate(105 36)" fill="#fff"/>
    <rect width="3" height="3" transform="translate(215 156)" fill="#fff"/>
    <rect width="3" height="3" transform="translate(25 36)" fill="#fff"/>
    <rect width="5" height="5" transform="translate(795 36)" fill="#fff"/>
    <rect width="3" height="3" transform="translate(88 82)" fill="#fff"/>
    <rect width="5" height="5" transform="translate(258 102)" fill="#fff"/>
    <rect width="3" height="3" transform="translate(798 72)" fill="#fff"/>
    <rect width="5" height="5" transform="translate(148 82)" fill="#fff"/>
    <rect width="3" height="3" transform="translate(28 92)" fill="#fff"/>
    <rect width="3" height="3" transform="translate(842 60)" fill="#fff"/>
    <rect width="2" height="2" transform="translate(171 160)" fill="#fff"/>
    <rect width="3" height="3" transform="translate(62 170)" fill="#fff"/>
    <rect width="3" height="3" transform="translate(192 100)" fill="#fff"/>
    <rect width="3" height="3" transform="translate(722 20)" fill="#fff"/>
    <rect width="3" height="3" transform="translate(641 448)" fill="#fff"/>
    <rect width="3" height="3" transform="translate(781 498)" fill="#fff"/>
    <rect width="3" height="3" transform="translate(641 588)" fill="#fff"/>
    <rect width="3" height="3" transform="translate(691 508)" fill="#fff"/>
    <rect width="3" height="3" transform="translate(781 618)" fill="#fff"/>
    <rect width="3" height="3" transform="translate(531 608)" fill="#fff"/>
    <rect width="3" height="3" transform="translate(611 458)" fill="#fff"/>
    <rect width="8" height="8" transform="translate(90 507)" fill="#fff"/>
    <rect width="3" height="3" transform="translate(791 548)" fill="#fff"/>
    <rect width="8" height="8" transform="translate(555 536)" fill="#fff"/>
    <rect width="3" height="3" transform="translate(695 586)" fill="#fff"/>
    <rect width="3" height="3" transform="translate(835 516)" fill="#fff"/>
    <rect width="3" height="3" transform="translate(605 596)" fill="#fff"/>
    <rect width="3" height="3" transform="translate(785 416)" fill="#fff"/>
    <rect width="3" height="3" transform="translate(615 536)" fill="#fff"/>
    <rect width="3" height="3" transform="translate(775 466)" fill="#fff"/>
    <rect width="3" height="3" transform="translate(845 406)" fill="#fff"/>
    <rect width="3" height="3" transform="translate(808 522)" fill="#fff"/>
    <rect width="3" height="3" transform="translate(818 462)" fill="#fff"/>
    <rect width="3" height="3" transform="translate(68 462)" fill="#fff"/>
    <rect width="3" height="3" transform="translate(728 472)" fill="#fff"/>
    <rect width="3" height="3" transform="translate(838 572)" fill="#fff"/>
    <rect width="3" height="3" transform="translate(42 440)" fill="#fff"/>
    <rect width="3" height="3" transform="translate(642 450)" fill="#fff"/>
    <rect width="3" height="3" transform="translate(812 600)" fill="#fff"/>
    <rect width="3" height="3" transform="translate(722 610)" fill="#fff"/>
    <rect width="3" height="3" transform="translate(592 500)" fill="#fff"/>
    <rect width="5" height="5" transform="translate(732 550)" fill="#fff"/>
    <rect width="3" height="3" transform="translate(642 560)" fill="#fff"/>
    <rect width="3" height="3" transform="translate(732 400)" fill="#fff"/>
    <rect width="3" height="3" transform="translate(221 818)" fill="#fff"/>
    <rect width="3" height="3" transform="translate(191 718)" fill="#fff"/>
    <rect width="3" height="3" transform="translate(401 778)" fill="#fff"/>
    <rect width="3" height="3" transform="translate(561 708)" fill="#fff"/>
    <rect width="3" height="3" transform="translate(441 688)" fill="#fff"/>
    <rect width="3" height="3" transform="translate(741 808)" fill="#fff"/>
    <rect width="3" height="3" transform="translate(721 748)" fill="#fff"/>
    <rect width="3" height="3" transform="translate(152 779)" fill="#fff"/>
    <rect width="8" height="8" transform="translate(141 698)" fill="#fff"/>
    <rect width="3" height="3" transform="translate(161 828)" fill="#fff"/>
    <rect width="3" height="3" transform="translate(481 658)" fill="#fff"/>
    <rect width="3" height="3" transform="translate(341 678)" fill="#fff"/>
    <rect width="3" height="3" transform="translate(641 698)" fill="#fff"/>
    <rect width="3" height="3" transform="translate(75 836)" fill="#fff"/>
    <rect width="3" height="3" transform="translate(295 676)" fill="#fff"/>
    <rect width="3" height="3" transform="translate(475 796)" fill="#fff"/>
    <rect width="3" height="3" transform="translate(515 706)" fill="#fff"/>
    <rect width="5" height="5" transform="translate(665 726)" fill="#fff"/>
    <rect width="3" height="3" transform="translate(275 652)" fill="#fff"/>
    <rect width="3" height="3" transform="translate(635 836)" fill="#fff"/>
    <rect width="5" height="5" transform="translate(15 756)" fill="#fff"/>
    <rect width="3" height="3" transform="translate(395 746)" fill="#fff"/>
    <rect width="3" height="3" transform="translate(425 636)" fill="#fff"/>
    <rect width="3" height="3" transform="translate(605 676)" fill="#fff"/>
    <rect width="3" height="3" transform="translate(255 836)" fill="#fff"/>
    <rect width="5" height="5" transform="translate(297 719)" fill="#fff"/>
    <rect width="3" height="3" transform="translate(535 806)" fill="#fff"/>
    <rect width="3" height="3" transform="translate(358 812)" fill="#fff"/>
    <rect width="3" height="3" transform="translate(678 722)" fill="#fff"/>
    <rect width="3" height="3" transform="translate(588 732)" fill="#fff"/>
    <rect width="3" height="3" transform="translate(668 832)" fill="#fff"/>
    <rect width="3" height="3" transform="translate(258 782)" fill="#fff"/>
    <rect width="3" height="3" transform="translate(398 832)" fill="#fff"/>
    <rect width="3" height="3" transform="translate(308 842)" fill="#fff"/>
    <rect width="3" height="3" transform="translate(798 672)" fill="#fff"/>
    <rect width="3" height="3" transform="translate(458 762)" fill="#fff"/>
    <rect width="3" height="3" transform="translate(598 792)" fill="#fff"/>
    <rect width="3" height="3" transform="translate(818 812)" fill="#fff"/>
    <rect width="3" height="3" transform="translate(758 712)" fill="#fff"/>
    <rect width="3" height="3" transform="translate(222 820)" fill="#fff"/>
    <rect width="3" height="3" transform="translate(632 720)" fill="#fff"/>
    <rect width="3" height="3" transform="translate(782 740)" fill="#fff"/>
    <rect width="3" height="3" transform="translate(502 820)" fill="#fff"/>
    <rect width="3" height="3" transform="translate(752 850)" fill="#fff"/>
    <rect width="3" height="3" transform="translate(92 740)" fill="#fff"/>
    <rect width="3" height="3" transform="translate(322 746)" fill="#fff"/>
    <rect width="3" height="3" transform="translate(532 650)" fill="#fff"/>
    <rect width="8" height="8" transform="translate(682 660)" fill="#fff"/>
    <rect width="3" height="3" transform="translate(672 800)" fill="#fff"/>
    <rect width="3" height="3" transform="translate(838 762)" fill="#fff"/>
    <rect width="3" height="3" transform="translate(215 666)" fill="#fff"/>
    <rect width="2" height="2" transform="translate(121 610)" fill="#fff"/>
    <rect width="3" height="3" transform="translate(62 680)" fill="#fff"/>
  </g>
</svg>
